<svg width="800" height="520" viewBox="0 0 800 520" fill="none" xmlns="http://www.w3.org/2000/svg">
  <rect width="800" height="520" rx="32" fill="url(#bg)"/>
  <rect x="94" y="88" width="220" height="340" rx="20" fill="#fff" fill-opacity="0.9"/>
  <rect x="132" y="126" width="140" height="96" rx="10" fill="#C4B5FD"/>
  <rect x="132" y="244" width="140" height="18" rx="9" fill="#E9D5FF"/>
  <rect x="132" y="278" width="100" height="18" rx="9" fill="#F3E8FF"/>
  <path d="M328 164C416 164 432 198 496 198C560 198 576 164 664 164" stroke="#7C3AED" stroke-width="18" stroke-linecap="round"/>
  <rect x="360" y="234" width="304" height="194" rx="24" fill="#fff" fill-opacity="0.86"/>
  <circle cx="430" cy="332" r="44" fill="#A855F7"/>
  <rect x="492" y="292" width="134" height="22" rx="11" fill="#DDD6FE"/>
  <rect x="492" y="328" width="104" height="22" rx="11" fill="#EDE9FE"/>
  <defs>
    <linearGradient id="bg" x1="0" y1="0" x2="800" y2="520" gradientUnits="userSpaceOnUse">
      <stop stop-color="#FAE8FF"/>
      <stop offset="1" stop-color="#E0F2FE"/>
    </linearGradient>
  </defs>
</svg>
