<svg width="800" height="520" viewBox="0 0 800 520" fill="none" xmlns="http://www.w3.org/2000/svg">
  <rect width="800" height="520" rx="32" fill="url(#bg)"/>
  <circle cx="190" cy="160" r="84" fill="#fff" fill-opacity="0.9"/>
  <path d="M190 120C214 168 240 192 190 246C140 192 166 168 190 120Z" fill="#7C3AED"/>
  <rect x="314" y="96" width="408" height="114" rx="24" fill="#fff" fill-opacity="0.88"/>
  <rect x="346" y="132" width="230" height="18" rx="9" fill="#DDD6FE"/>
  <rect x="346" y="166" width="180" height="14" rx="7" fill="#EDE9FE"/>
  <rect x="80" y="260" width="640" height="170" rx="24" fill="#fff" fill-opacity="0.85"/>
  <rect x="124" y="302" width="182" height="86" rx="16" fill="#EDE9FE"/>
  <rect x="332" y="302" width="182" height="86" rx="16" fill="#CFFAFE"/>
  <rect x="540" y="302" width="136" height="86" rx="16" fill="#D9F99D"/>
  <defs>
    <linearGradient id="bg" x1="0" y1="0" x2="800" y2="520" gradientUnits="userSpaceOnUse">
      <stop stop-color="#F5D0FE"/>
      <stop offset="1" stop-color="#CFFAFE"/>
    </linearGradient>
  </defs>
</svg>
